<svg width="49" height="16" viewBox="0 0 49 16" fill="none" xmlns="http://www.w3.org/2000/svg">
<path d="M10.3359 10.21C10.3359 10.9482 10.21 11.6221 9.95801 12.2314C9.70605 12.8408 9.36328 13.3652 8.92969 13.8047C8.49609 14.2383 7.98633 14.5752 7.40039 14.8154C6.82031 15.0557 6.19629 15.1758 5.52832 15.1758C4.86621 15.1758 4.24219 15.0527 3.65625 14.8066C3.07617 14.5605 2.56641 14.2178 2.12695 13.7783C1.69336 13.3389 1.35059 12.8174 1.09863 12.2139C0.84668 11.6045 0.720703 10.9365 0.720703 10.21V1.84277H3.12891V6.2373C3.25781 6.07324 3.41309 5.92676 3.59473 5.79785C3.78223 5.66895 3.98145 5.56348 4.19238 5.48145C4.40918 5.39941 4.63184 5.33789 4.86035 5.29688C5.08887 5.25 5.31152 5.22656 5.52832 5.22656C6.19629 5.22656 6.82031 5.35254 7.40039 5.60449C7.98633 5.85059 8.49609 6.19629 8.92969 6.6416C9.36328 7.08691 9.70605 7.61426 9.95801 8.22363C10.21 8.82715 10.3359 9.48926 10.3359 10.21ZM7.91895 10.21C7.91895 9.84668 7.85449 9.50977 7.72559 9.19922C7.60254 8.88281 7.43262 8.61035 7.21582 8.38184C6.99902 8.15332 6.74414 7.97461 6.45117 7.8457C6.16406 7.7168 5.85645 7.65234 5.52832 7.65234C5.2002 7.65234 4.88965 7.72559 4.59668 7.87207C4.30957 8.0127 4.05762 8.20312 3.84082 8.44336C3.62402 8.67773 3.4541 8.9502 3.33105 9.26074C3.20801 9.56543 3.14648 9.88184 3.14648 10.21C3.14648 10.5732 3.20801 10.9102 3.33105 11.2207C3.4541 11.5312 3.62402 11.8008 3.84082 12.0293C4.05762 12.2578 4.30957 12.4395 4.59668 12.5742C4.88965 12.7031 5.2002 12.7676 5.52832 12.7676C5.85645 12.7676 6.16406 12.7031 6.45117 12.5742C6.74414 12.4395 6.99902 12.2578 7.21582 12.0293C7.43262 11.8008 7.60254 11.5312 7.72559 11.2207C7.85449 10.9102 7.91895 10.5732 7.91895 10.21ZM14.0713 15H11.6719V5.58691H12.252L13.043 6.70312C13.4297 6.35156 13.8691 6.08203 14.3613 5.89453C14.8535 5.70117 15.3633 5.60449 15.8906 5.60449H18.0088V7.99512H15.8906C15.6387 7.99512 15.4014 8.04199 15.1787 8.13574C14.9561 8.22949 14.7627 8.3584 14.5986 8.52246C14.4346 8.68652 14.3057 8.87988 14.2119 9.10254C14.1182 9.3252 14.0713 9.5625 14.0713 9.81445V15ZM21.9551 3.0293C21.9551 3.25195 21.9111 3.45996 21.8232 3.65332C21.7412 3.84668 21.627 4.0166 21.4805 4.16309C21.334 4.30371 21.1611 4.41797 20.9619 4.50586C20.7686 4.58789 20.5605 4.62891 20.3379 4.62891C20.1152 4.62891 19.9043 4.58789 19.7051 4.50586C19.5117 4.41797 19.3418 4.30371 19.1953 4.16309C19.0547 4.0166 18.9404 3.84668 18.8525 3.65332C18.7705 3.45996 18.7295 3.25195 18.7295 3.0293C18.7295 2.8125 18.7705 2.60742 18.8525 2.41406C18.9404 2.21484 19.0547 2.04492 19.1953 1.9043C19.3418 1.75781 19.5117 1.64355 19.7051 1.56152C19.9043 1.47363 20.1152 1.42969 20.3379 1.42969C20.5605 1.42969 20.7686 1.47363 20.9619 1.56152C21.1611 1.64355 21.334 1.75781 21.4805 1.9043C21.627 2.04492 21.7412 2.21484 21.8232 2.41406C21.9111 2.60742 21.9551 2.8125 21.9551 3.0293ZM21.542 15H19.125V5.58691H21.542V15ZM27.123 12.6973C27.2168 12.7266 27.3105 12.7471 27.4043 12.7588C27.498 12.7646 27.5918 12.7676 27.6855 12.7676C27.9199 12.7676 28.1455 12.7354 28.3623 12.6709C28.5791 12.6064 28.7812 12.5156 28.9688 12.3984C29.1621 12.2754 29.332 12.1289 29.4785 11.959C29.6309 11.7832 29.7539 11.5898 29.8477 11.3789L31.6055 13.1455C31.3828 13.4619 31.125 13.7461 30.832 13.998C30.5449 14.25 30.2314 14.4639 29.8916 14.6396C29.5576 14.8154 29.2031 14.9473 28.8281 15.0352C28.459 15.1289 28.0781 15.1758 27.6855 15.1758C27.0234 15.1758 26.3994 15.0527 25.8135 14.8066C25.2334 14.5605 24.7236 14.2178 24.2842 13.7783C23.8506 13.3389 23.5078 12.8174 23.2559 12.2139C23.0039 11.6045 22.8779 10.9365 22.8779 10.21C22.8779 9.46582 23.0039 8.78613 23.2559 8.1709C23.5078 7.55566 23.8506 7.03125 24.2842 6.59766C24.7236 6.16406 25.2334 5.82715 25.8135 5.58691C26.3994 5.34668 27.0234 5.22656 27.6855 5.22656C28.0781 5.22656 28.4619 5.27344 28.8369 5.36719C29.2119 5.46094 29.5664 5.5957 29.9004 5.77148C30.2402 5.94727 30.5566 6.16406 30.8496 6.42188C31.1426 6.67383 31.4004 6.95801 31.623 7.27441L27.123 12.6973ZM28.3535 7.74902C28.2422 7.70801 28.1309 7.68164 28.0195 7.66992C27.9141 7.6582 27.8027 7.65234 27.6855 7.65234C27.3574 7.65234 27.0469 7.71387 26.7539 7.83691C26.4668 7.9541 26.2148 8.12402 25.998 8.34668C25.7871 8.56934 25.6201 8.83887 25.4971 9.15527C25.374 9.46582 25.3125 9.81738 25.3125 10.21C25.3125 10.2979 25.3154 10.3975 25.3213 10.5088C25.333 10.6201 25.3477 10.7344 25.3652 10.8516C25.3887 10.9629 25.415 11.0713 25.4443 11.1768C25.4736 11.2822 25.5117 11.376 25.5586 11.458L28.3535 7.74902ZM35.8857 15H33.4863V7.97754H32.3174V5.58691H33.4863V5.13867C33.4863 4.55859 33.5947 4.01367 33.8115 3.50391C34.0342 2.99414 34.3359 2.55176 34.7168 2.17676C35.1035 1.7959 35.5518 1.49707 36.0615 1.28027C36.5713 1.05762 37.1162 0.946289 37.6963 0.946289H39.498V3.33691H37.6963C37.4385 3.33691 37.1982 3.38379 36.9756 3.47754C36.7588 3.56543 36.5684 3.69141 36.4043 3.85547C36.2461 4.01367 36.1201 4.2041 36.0264 4.42676C35.9326 4.64355 35.8857 4.88086 35.8857 5.13867V5.58691H38.8301V7.97754H35.8857V15ZM45.0352 15H39.5508V12.6094H45.0352C45.1992 12.6094 45.3398 12.5508 45.457 12.4336C45.5742 12.3164 45.6328 12.1758 45.6328 12.0117C45.6328 11.8418 45.5742 11.7305 45.457 11.6777C45.3398 11.625 45.1992 11.5986 45.0352 11.5986H42.5391C42.123 11.5986 41.7334 11.5195 41.3701 11.3613C41.0068 11.2031 40.6904 10.9893 40.4209 10.7197C40.1514 10.4443 39.9375 10.125 39.7793 9.76172C39.627 9.39844 39.5508 9.00879 39.5508 8.59277C39.5508 8.17676 39.627 7.78711 39.7793 7.42383C39.9375 7.06055 40.1514 6.74414 40.4209 6.47461C40.6904 6.20508 41.0068 5.99414 41.3701 5.8418C41.7334 5.68359 42.123 5.60449 42.5391 5.60449H47.3994V7.99512H42.5391C42.375 7.99512 42.2344 8.05371 42.1172 8.1709C42 8.28809 41.9414 8.42871 41.9414 8.59277C41.9414 8.7627 42 8.90918 42.1172 9.03223C42.2344 9.14941 42.375 9.20801 42.5391 9.20801H45.0352C45.4453 9.20801 45.832 9.27832 46.1953 9.41895C46.5586 9.55371 46.875 9.74414 47.1445 9.99023C47.4141 10.2363 47.6279 10.5322 47.7861 10.8779C47.9443 11.2236 48.0234 11.6016 48.0234 12.0117C48.0234 12.4277 47.9443 12.8174 47.7861 13.1807C47.6279 13.5381 47.4141 13.8545 47.1445 14.1299C46.875 14.3994 46.5586 14.6133 46.1953 14.7715C45.832 14.9238 45.4453 15 45.0352 15Z" fill="#F17BB8"/>
</svg>
